# xmcd CD database file
#
# Track frame offsets:
#	150
#	14300
#	35606
#	52161
#	79566
#	95901
#	107650
#	129897
#	154498
#	170809
#	187278
#	207980
#	239025
#	251955
#	283175
#	306911
#	320084
#	333747
#
# Disc length: 4849 seconds
#
# Revision: 0
# Processed by: cddbd v1.5.1PL2 Copyright (c) Steve Scherf et al.
# Submitted via: Feurio! 1.68 - http://www.feurio.com
#
DISCID=2112ef12
DTITLE=Peter Green - Blues let the Guitar swing
DYEAR=1900
DGENRE=Blues
TTITLE0=Albatros (Acoustic)
TTITLE1=Love In Vain Blues
TTITLE2=Homework
TTITLE3=Drifting
TTITLE4=Rraplane Blues
TTITLE5=Peter Green Splinter Group - From 4' till Late
TTITLE6=Peter Green Splinter Group - Indians
TTITLE7=Peter Green Splinter Group - Tribal Dance
TTITLE8=Peter Green Splinter Group - Madison Blues
TTITLE9=Peter Green Splinter Group - Homework
TTITLE10=Peter Green Splinter Group - Hiding In Shadows
TTITLE11=Peter Green Splinter Group - Black magic woman
TTITLE12=Peter Green Splinter Group - 32 - 20 Blues
TTITLE13=Peter Green Splinter Group - I Can't Help Myself
TTITLE14=Peter Green Splinter Group - Turn Your Love Away
TTITLE15=Peter Green and Nigel Watson - Ramblin' On My Mind
TTITLE16=Peter Green and Savoy Brown - Stop Messin' Round
TTITLE17=Peter Green and Rory Gallager - Leavin' Town Blues
EXTD=
EXTT0=
EXTT1=
EXTT2=
EXTT3=
EXTT4=
EXTT5=
EXTT6=
EXTT7=
EXTT8=
EXTT9=
EXTT10=
EXTT11=
EXTT12=
EXTT13=
EXTT14=
EXTT15=
EXTT16=
EXTT17=
PLAYORDER=
